<?xml version="1.0" encoding="UTF-8"?>
<svg version="1.1" xmlns="http://www.w3.org/2000/svg" width="512" height="512">
<path d="M0 0 C1.21030884 0.00131424 1.21030884 0.00131424 2.44506836 0.00265503 C43.86531166 0.15026342 80.78359042 14.05308185 110.63427734 42.99804688 C111.90169726 44.21996967 113.19336299 45.41663226 114.48828125 46.609375 C125.80825442 57.30604592 133.93862321 70.64720973 141.0625 84.375 C141.78373047 85.75365234 141.78373047 85.75365234 142.51953125 87.16015625 C155.28680474 113.38373068 156.0625 140.47597154 156.0625 169.375 C53.4325 169.375 -49.1975 169.375 -154.9375 169.375 C-154.9375 117.49227022 -145.32552079 77.96642641 -109.0703125 41.4375 C-91.12559812 24.31950687 -68.7357083 12.09194498 -44.9375 5.375 C-43.86242187 5.06046875 -42.78734375 4.7459375 -41.6796875 4.421875 C-27.96987944 0.69280721 -14.1225539 -0.03773062 0 0 Z " fill="#000000" transform="translate(154.9375,285.625)"/>
<path d="M0 0 C0.7465686 0.00149048 1.49313721 0.00298096 2.2623291 0.0045166 C41.96583417 0.1468383 76.89379897 14.35541913 105.70703125 41.61328125 C142.26236977 78.59679358 145.375 120.85812655 145.375 171.3125 C88.615 171.3125 31.855 171.3125 -26.625 171.3125 C-28.275 160.7525 -29.925 150.1925 -31.625 139.3125 C-33.43825249 132.79250699 -35.2454851 126.59423308 -37.625 120.3125 C-38.07988598 119.04313311 -38.53432348 117.77360539 -38.98828125 116.50390625 C-44.79050037 101.0585624 -52.70885994 86.49172089 -62.625 73.3125 C-63.25792969 72.46816406 -63.89085937 71.62382812 -64.54296875 70.75390625 C-73.17067098 59.63573327 -83.2237064 47.71954598 -94.90625 39.7578125 C-95.75703125 39.04238281 -95.75703125 39.04238281 -96.625 38.3125 C-96.625 35.3125 -96.625 35.3125 -95.28662109 33.90551758 C-94.66352051 33.42751709 -94.04041992 32.9495166 -93.3984375 32.45703125 C-92.70363281 31.92094238 -92.00882812 31.38485352 -91.29296875 30.83251953 C-90.53628906 30.26903809 -89.77960938 29.70555664 -89 29.125 C-88.22527344 28.54347168 -87.45054687 27.96194336 -86.65234375 27.36279297 C-61.1947446 8.5569844 -31.4898919 -0.15565678 0 0 Z " fill="#000000" transform="translate(366.625,256.6875)"/>
<path d="M0 0 C2.4891236 1.97102547 4.91940712 3.99632129 7.33984375 6.05078125 C7.96632812 6.54320313 8.5928125 7.035625 9.23828125 7.54296875 C27.93316278 22.51579242 38.42049071 47.83547837 41.33984375 71.05078125 C41.61628461 75.16009914 41.67450467 79.24552568 41.65234375 83.36328125 C41.64497192 85.00067261 41.64497192 85.00067261 41.63745117 86.67114258 C41.27572385 111.69710854 31.58574951 134.28459809 15.33984375 153.05078125 C14.68242187 153.81132812 14.025 154.571875 13.34765625 155.35546875 C-1.85240856 171.59931484 -24.40182196 182.13496428 -46.66015625 183.05078125 C-47.55605469 183.09074219 -48.45195312 183.13070312 -49.375 183.171875 C-72.67478777 183.6923696 -95.37859264 175.78179673 -112.66015625 160.05078125 C-114.01560547 158.81714844 -114.01560547 158.81714844 -115.3984375 157.55859375 C-135.35238558 138.51540678 -145.44806779 113.40106436 -146.66015625 86.05078125 C-147.22967383 56.17990413 -135.68022311 29.91088709 -115.22265625 8.30078125 C-84.76813792 -20.90503245 -34.20171717 -25.06117014 0 0 Z " fill="#000000" transform="translate(207.66015625,72.94921875)"/>
<path d="M0 0 C18.12233565 14.30245862 28.75473553 35.9004372 31.53125 58.56640625 C33.59464287 80.67753666 28.82543351 104.13837267 14.83789062 121.8828125 C11.78411173 125.53148339 8.51011284 128.90866017 5.125 132.25 C3.99578125 133.37728516 3.99578125 133.37728516 2.84375 134.52734375 C-11.88294101 148.42699233 -31.79114351 154.77240469 -51.8581543 154.2265625 C-70.31265345 153.29724745 -87.17280399 146.72053795 -100.875 134.25 C-101.79152344 133.42628906 -102.70804687 132.60257813 -103.65234375 131.75390625 C-118.41877996 117.79769974 -129.0159255 96.8677881 -129.875 76.25 C-129.9265625 75.115625 -129.978125 73.98125 -130.03125 72.8125 C-130.75260381 48.983978 -123.71574019 26.82400422 -107.5 8.9375 C-78.3826594 -21.88764631 -33.87771637 -25.37554788 0 0 Z " fill="#000000" transform="translate(416.875,87.75)"/>
</svg>
